# xmcd CD database file
#
# Track frame offsets:
#	225
#	2473
#	20426
#	39158
#	59414
#	76473
#	102929
#	124307
#	150023
#	173329
#	201423
#	218991
#	243329
#	272697
#
# Disc length: 3942 seconds
#
# Revision: 0
# Processed by: cddbd v1.4PL0 Copyright (c) Steve Scherf et al.
# Submitted via: CDex 1.50Beta7
#
DISCID=aa0f630e
DTITLE=Gerry Mulligan - Play along songbook
DYEAR=1900
DGENRE=Jazz
TTITLE0=Tunig Note Bb and A
TTITLE1=Elevation
TTITLE2=Wood on Wood
TTITLE3=I heard the shadowys Dancing
TTITLE4=Jeru
TTITLE5=Wallflower
TTITLE6=Idol Gossip
TTITLE7=Theme for Jobim
TTITLE8=Rocker (Rock Salt)
TTITLE9=The Lonely Night (Nicht Lights)
TTITLE10=Bark for Barksdale
TTITLE11=Dragonfly
TTITLE12=Noblesse
TTITLE13=K-4 Pacific
EXTD=
EXTT0=
EXTT1=
EXTT2=
EXTT3=
EXTT4=
EXTT5=
EXTT6=
EXTT7=
EXTT8=
EXTT9=
EXTT10=
EXTT11=
EXTT12=
EXTT13=
PLAYORDER=
